SplineFontDB: 3.2
FontName: Sol-Regular
FullName: Sol Regular
FamilyName: Sol
Weight: Regular
Copyright: Copyright (c) 2023, Andrew Meyer, with Reserved Font Name 'Sol'.
UComments: "2023-4-29: Created with FontForge (http://fontforge.org)"
Version: 0.0.1
ItalicAngle: 0
UnderlinePosition: -100
UnderlineWidth: 50
Ascent: 800
Descent: 200
InvalidEm: 0
LayerCount: 2
Layer: 0 0 "Back" 1
Layer: 1 0 "Fore" 0
XUID: [1021 296 -332274537 6671418]
StyleMap: 0x0000
FSType: 0
OS2Version: 0
OS2_WeightWidthSlopeOnly: 0
OS2_UseTypoMetrics: 1
CreationTime: 1682754474
ModificationTime: 1690526700
PfmFamily: 49
TTFWeight: 400
TTFWidth: 5
LineGap: 90
VLineGap: 90
OS2TypoAscent: 0
OS2TypoAOffset: 1
OS2TypoDescent: 0
OS2TypoDOffset: 1
OS2TypoLinegap: 90
OS2WinAscent: 0
OS2WinAOffset: 1
OS2WinDescent: 0
OS2WinDOffset: 1
HheadAscent: 0
HheadAOffset: 1
HheadDescent: 0
HheadDOffset: 1
OS2Vendor: '    '
Lookup: 4 0 1 "'liga' Standard Ligatures in Latin lookup 0" { "liga"  } ['liga' ('DFLT' <'dflt' > 'latn' <'dflt' > ) ]
MarkAttachClasses: 1
DEI: 91125

StartChar: exclam
Encoding: 33 33 0
Width: 900
Flags: W
HStem: 6.4 123.2<407.353 492.647> 650 20G<410 490>
VStem: 388.4 123.2<25.3531 110.647> 412 76<404 670> 422 56<232 472.8>
LayerCount: 2
Fore
SplineSet
422 232 m 1xc8
 412 576 l 1
 410 670 l 1
 490 670 l 1
 488 576 l 1xd0
 478 232 l 1
 422 232 l 1xc8
EndSplineSet
Refer: 13 46 S 0.8 0 0 0.8 90 13.6 2
Validated: 1
EndChar

StartChar: numbersign
Encoding: 35 35 2
Width: 900
Flags: W
HStem: 0 21G<292 348.431 478 534.431> 0 21G<292 348.431 478 534.431> 204 57<237 317.107 377.722 503.107 563.722 649> 409 58<257 342.339 402.759 528.339 588.759 669> 630 20G<369.538 425 555.538 611> 630 20G<369.538 425 555.538 611>
LayerCount: 2
Fore
SplineSet
237 204 m 5xb8
 237 261 l 1
 324.123046875 261 l 1
 342.338867188 409 l 1
 257 409 l 1
 257 467 l 1
 349.4765625 467 l 1
 372 650 l 1
 425 650 l 1
 402.758789062 467 l 1
 535.4765625 467 l 1
 558 650 l 1
 611 650 l 1
 588.758789062 467 l 1
 669 467 l 1
 669 409 l 1
 581.708984375 409 l 1
 563.721679688 261 l 1
 649 261 l 1
 649 204 l 1
 556.793945312 204 l 1
 532 0 l 1
 478 0 l 1
 503.107421875 204 l 1
 370.793945312 204 l 1
 346 0 l 1
 292 0 l 1
 317.107421875 204 l 1
 237 204 l 5xb8
395.708984375 409 m 5
 377.721679688 261 l 1
 510.123046875 261 l 1
 528.338867188 409 l 1
 395.708984375 409 l 5
EndSplineSet
Validated: 1
EndChar

StartChar: dollar
Encoding: 36 36 3
Width: 900
Flags: W
HStem: 34.9902 67.0098<355.193 426 486 546.016> 493 21G<589.667 619.333> 550 66.2373<374.427 426 486 548.304>
VStem: 264 80<422.101 520.477> 426 60<-110 37.4852 614.849 748> 581 81<135.506 239.589>
LayerCount: 2
Fore
SplineSet
235 113 m 5
 274 170 l 1
 298.666992188 152 326.5 136.166992188 357.5 122.5 c 0
 388.5 108.833007812 422.666992188 102 460 102 c 0
 499.333007812 102 529.333007812 110.166992188 550 126.5 c 0
 570.666992188 142.833007812 581 163.666015625 581 189 c 0
 581 209.666992188 573.333007812 227 558 241 c 0
 542.666992188 255 523 267.166992188 499 277.5 c 0
 475 287.833007812 449.5 298 422.5 308 c 0
 395.5 318 370 329.666992188 346 343 c 0
 322 356.333007812 302.333007812 372.833007812 287 392.5 c 0
 271.666992188 412.166992188 264 436.333984375 264 465 c 0
 264 496.333007812 272.333007812 523.5 289 546.5 c 0
 305.666992188 569.5 328.833984375 587.166992188 358.5 599.5 c 0
 379.008789062 608.026367188 401.508789062 613.60546875 426 616.237304688 c 1
 426 748 l 1
 486 748 l 1
 486 617.081054688 l 1
 518.458007812 614.6953125 545.958007812 607.66796875 568.5 596 c 0
 596.833007812 581.333007812 622.333007812 563 645 541 c 1
 601 493 l 1
 578.333007812 511 556.5 525 535.5 535 c 0
 514.5 545 487.333007812 550 454 550 c 0
 420 550 393.166992188 542.5 373.5 527.5 c 0
 353.833007812 512.5 344 492.333007812 344 467 c 0
 344 449 351.666992188 433.666992188 367 421 c 0
 382.333007812 408.333007812 402 397.333007812 426 388 c 0
 450.10546875 378.625976562 475.60546875 368.79296875 502.5 358.5 c 0
 529.5 348.166992188 555.166992188 336.166992188 579.5 322.5 c 0
 603.833007812 308.833007812 623.666015625 291.833007812 639 271.5 c 0
 654.333007812 251.166992188 662 225.666992188 662 195 c 0
 662 163 653 134.833007812 635 110.5 c 0
 617 86.1669921875 592.166992188 67.333984375 560.5 54 c 0
 538.223632812 44.6201171875 513.390625 38.5400390625 486 35.7587890625 c 1
 486 -110 l 1
 426 -110 l 1
 426 34.990234375 l 1
 407.330078125 36.5302734375 388.6640625 39.8671875 370 45 c 0
 343.333007812 52.3330078125 318.5 62 295.5 74 c 0
 272.5 86 252.333007812 99 235 113 c 5
EndSplineSet
Validated: 1
EndChar

StartChar: percent
Encoding: 37 37 4
Width: 900
Flags: W
HStem: -12 50<535.026 633.275> 268 49<533.986 634.608> 321 50<267.026 365.275> 391 21G<517 558.468> 601 49<265.986 366.608> 604 20G<656.547 694.778>
VStem: 177 61<401.451 572.324> 394 61<400.393 572.758> 445 61<68.451 239.324> 662 61<67.3929 239.758>
LayerCount: 2
Fore
SplineSet
316 321 m 260xfb40
 289.333007812 321 265.5 327.5 244.5 340.5 c 0
 223.5 353.5 207 372.666992188 195 398 c 0
 183 423.333007812 177 453 177 487 c 0
 177 539 190.166992188 579.166992188 216.5 607.5 c 0
 242.833007812 635.833007812 276 650 316 650 c 0
 356.666992188 650 390 635.833007812 416 607.5 c 0
 442 579.166992188 455 539 455 487 c 0
 455 453 449 423.333007812 437 398 c 0
 425 372.666992188 408.5 353.5 387.5 340.5 c 0
 366.5 327.5 342.666992188 321 316 321 c 260xfb40
316 371 m 4
 338 371 356.5 380.5 371.5 399.5 c 0
 386.5 418.5 394 447.666992188 394 487 c 0
 394 527 386.5 556 371.5 574 c 0
 356.5 592 338 601 316 601 c 0
 294.666992188 601 276.333007812 592 261 574 c 0
 245.666992188 556 238 527 238 487 c 0
 238 447.666992188 245.666992188 418.5 261 399.5 c 0
 276.333007812 380.5 294.666992188 371 316 371 c 4
584 -12 m 260
 557.333007812 -12 533.5 -5.5 512.5 7.5 c 0
 491.5 20.5 475 39.6669921875 463 65 c 0
 451 90.3330078125 445 120 445 154 c 0xf2c0
 445 206 458.166992188 246.166992188 484.5 274.5 c 0
 510.833007812 302.833007812 544 317 584 317 c 0
 624.666992188 317 658 302.833007812 684 274.5 c 0
 710 246.166992188 723 206 723 154 c 0
 723 120 717 90.3330078125 705 65 c 0
 693 39.6669921875 676.5 20.5 655.5 7.5 c 0
 634.5 -5.5 610.666992188 -12 584 -12 c 260
584 38 m 4
 606 38 624.5 47.5 639.5 66.5 c 0
 654.5 85.5 662 114.666992188 662 154 c 0
 662 194 654.5 223 639.5 241 c 0
 624.5 259 606 268 584 268 c 0
 562.666992188 268 544.333007812 259 529 241 c 0
 513.666992188 223 506 194 506 154 c 0
 506 114.666992188 513.666992188 85.5 529 66.5 c 0
 544.333007812 47.5 562.666992188 38 584 38 c 4
539 391 m 1
 506 421 l 1
 673 624 l 1xf6c0
 722 579 l 1
 539 391 l 1
227 32 m 1
 178 77 l 1
 361 265 l 1
 394 235 l 1xf340
 227 32 l 1
EndSplineSet
Validated: 1
EndChar

StartChar: ampersand
Encoding: 38 38 5
Width: 900
Flags: W
HStem: -12 66<323.64 471.802> 334 20G<638.333 720> 609 59<365.885 461.279>
VStem: 192 80<104.318 245.945> 271 71<416.557 582.965> 475 67<472.278 591.558> 644 76<285.776 354>
LayerCount: 2
Fore
SplineSet
388 -12 m 4xee
 349.333007812 -12 315.166992188 -4.1669921875 285.5 11.5 c 4
 255.833007812 27.1669921875 232.833007812 48.6669921875 216.5 76 c 4
 200.166992188 103.333007812 192 134.666992188 192 170 c 4xf6
 192 201.333007812 198.833007812 229 212.5 253 c 4
 226.166992188 277 243.666992188 298.666992188 265 318 c 4
 280.510742188 332.056640625 296.814453125 345.408203125 313.911132812 358.055664062 c 5
 306.224609375 373.422851562 299.420898438 388.737304688 293.5 404 c 4
 278.5 442.666992188 271 479 271 513 c 4
 271 541.666992188 277 567.833007812 289 591.5 c 4
 301 615.166992188 317.666992188 633.833007812 339 647.5 c 4
 360.333007812 661.166992188 385.666992188 668 415 668 c 4
 455.666992188 668 487 656 509 632 c 4
 531 608 542 576.666992188 542 538 c 4
 542 511.333007812 535.666992188 487 523 465 c 4
 510.333007812 443 493.666992188 422.833007812 473 404.5 c 4
 452.333007812 386.166992188 430.333007812 368.333007812 407 351 c 4
 404.895507812 349.436523438 402.802734375 347.872070312 400.719726562 346.306640625 c 4
 407.489257812 335.37109375 414.75 324.435546875 422.5 313.5 c 4
 446.833007812 279.166992188 474 246.5 504 215.5 c 4
 522.822265625 196.05078125 541.775390625 178.109375 560.860351562 161.677734375 c 5
 575.603515625 182.651367188 588.817382812 205.591796875 600.5 230.5 c 4
 618.166992188 268.166992188 632.666992188 309.333007812 644 354 c 5
 720 354 l 5
 706.666992188 305.333007812 689.666992188 258.666992188 669 214 c 4
 653.34375 180.162109375 635.200195312 148.428710938 614.5703125 118.798828125 c 5
 631.65234375 106.032226562 648.294921875 94.9326171875 664.5 85.5 c 4
 686.833007812 72.5 707.666992188 62.6669921875 727 56 c 5
 704 -12 l 5
 680 -4 654.666992188 7.5 628 22.5 c 4
 607.961914062 33.771484375 587.546875 47.2080078125 566.755859375 62.80859375 c 5
 547.708984375 45.166015625 526.95703125 29.896484375 504.5 17 c 4
 470.833007812 -2.3330078125 432 -12 388 -12 c 4xee
345.509765625 302.334960938 m 5
 344 301.057617188 342.49609375 299.779296875 341 298.5 c 4
 320.333007812 280.833007812 303.666992188 262 291 242 c 4
 278.333007812 222 272 199.666992188 272 175 c 4
 272 150.333007812 277.666992188 129 289 111 c 4
 300.333007812 93 315.5 79 334.5 69 c 4
 353.5 59 374.666992188 54 398 54 c 4
 423.333007812 54 447.833007812 61.1669921875 471.5 75.5 c 4
 486.026367188 84.2978515625 499.861328125 94.6650390625 513.005859375 106.6015625 c 5
 489.37890625 127.435546875 466.376953125 150.068359375 444 174.5 c 4
 411.333007812 210.166992188 381.833007812 247.666992188 355.5 287 c 4
 352.07421875 292.1171875 348.744140625 297.228515625 345.509765625 302.334960938 c 5
371.872070312 399.045898438 m 5
 382.2265625 406.565429688 392.26953125 414.049804688 402 421.5 c 4
 423.333007812 437.833007812 440.833007812 455.333007812 454.5 474 c 4
 468.166992188 492.666992188 475 513.666992188 475 537 c 4
 475 556.333007812 470.5 573.166992188 461.5 587.5 c 4
 452.5 601.833007812 437 609 415 609 c 4
 392.333007812 609 374.5 600 361.5 582 c 4
 348.5 564 342 541.333007812 342 514 c 4xee
 342 483.333007812 349.333007812 450.833007812 364 416.5 c 4
 366.485351562 410.681640625 369.109375 404.864257812 371.872070312 399.045898438 c 5
EndSplineSet
Validated: 1
EndChar

StartChar: quotesingle
Encoding: 39 39 6
Width: 900
Flags: W
HStem: 352 21G<419.778 480.222> 667 20G<395 505>
VStem: 397 106<532 687>
LayerCount: 2
Fore
SplineSet
422 352 m 5
 397 577 l 5
 395 687 l 5
 505 687 l 5
 503 577 l 5
 478 352 l 5
 422 352 l 5
EndSplineSet
Validated: 1
EndChar

StartChar: parenleft
Encoding: 40 40 7
Width: 900
Flags: W
VStem: 358 74<120.535 435.661>
LayerCount: 2
Fore
SplineSet
583 -176 m 5
 513.666992188 -121.333007812 458.833007812 -56.1669921875 418.5 19.5 c 4
 378.166992188 95.1669921875 358 181.333007812 358 278 c 4
 358 374.666992188 378.166992188 461 418.5 537 c 4
 458.833007812 613 513.666992188 678 583 732 c 5
 628 690 l 5
 561.333007812 634 512 572.333007812 480 505 c 4
 448 437.666992188 432 362 432 278 c 4
 432 194 448 118.5 480 51.5 c 4
 512 -15.5 561.333007812 -77.3330078125 628 -134 c 5
 583 -176 l 5
EndSplineSet
Validated: 1
EndChar

StartChar: parenright
Encoding: 41 41 8
Width: 900
Flags: W
VStem: 468 74<120.535 435.661>
LayerCount: 2
Fore
SplineSet
317 -176 m 5
 272 -134 l 5
 338.666992188 -77.3330078125 388 -15.5 420 51.5 c 4
 452 118.5 468 194 468 278 c 4
 468 362 452 437.666992188 420 505 c 4
 388 572.333007812 338.666992188 634 272 690 c 5
 317 732 l 5
 387 678 442 613 482 537 c 4
 522 461 542 374.666992188 542 278 c 4
 542 181.333007812 522 95.1669921875 482 19.5 c 4
 442 -56.1669921875 387 -121.333007812 317 -176 c 5
EndSplineSet
Validated: 1
EndChar

StartChar: asterisk
Encoding: 42 42 9
Width: 900
Flags: W
HStem: 402 154G<243.043 310.727 425.048 474.952 589.273 656.957>
VStem: 417 66<367 514> 426 48<409 556>
LayerCount: 2
Fore
SplineSet
330 111 m 1xc0
 288 141 l 1
 396 306 l 1
 234 376 l 1
 250 422 l 1
 417 367 l 1xc0
 426 556 l 1
 474 556 l 1xa0
 483 367 l 1
 650 422 l 1
 666 376 l 1
 504 306 l 1
 612 141 l 1
 570 111 l 1
 450 270 l 1
 330 111 l 1xc0
EndSplineSet
Validated: 1
EndChar

StartChar: plus
Encoding: 43 43 10
Width: 900
Flags: W
HStem: 299 62<235 417 483 665> 536 20G<417 483>
VStem: 417 66<104 299 361 556>
LayerCount: 2
Fore
SplineSet
417 104 m 1
 417 299 l 1
 235 299 l 1
 235 361 l 1
 417 361 l 1
 417 556 l 1
 483 556 l 1
 483 361 l 1
 665 361 l 1
 665 299 l 1
 483 299 l 1
 483 104 l 1
 417 104 l 1
EndSplineSet
Validated: 1
EndChar

StartChar: comma
Encoding: 44 44 11
Width: 900
Flags: W
HStem: 4 151<400.752 471.762>
VStem: 472.862 73.1377<-76.3633 5.81738>
LayerCount: 2
Fore
SplineSet
370 -213 m 1
 347 -161 l 1
 389.666992188 -142.333007812 421.333007812 -118.833007812 442 -90.5 c 0
 461.288085938 -64.056640625 471.576171875 -31.9501953125 472.862304688 5.8173828125 c 1
 466.641601562 4.60546875 460.354492188 4 454 4 c 0
 440 4 427 6.8330078125 415 12.5 c 0
 403 18.1669921875 393.5 26.5 386.5 37.5 c 0
 379.5 48.5 376 62.3330078125 376 79 c 0
 376 103.666992188 384 122.5 400 135.5 c 0
 416 148.5 434.666992188 155 456 155 c 0
 485.333007812 155 507.666992188 143.5 523 120.5 c 0
 538.333007812 97.5 546 66.3330078125 546 27 c 0
 546 -31.6669921875 530.333007812 -81.1669921875 499 -121.5 c 0
 467.666992188 -161.833007812 424.666992188 -192.333007812 370 -213 c 1
EndSplineSet
Validated: 1
EndChar

StartChar: hyphen
Encoding: 45 45 12
Width: 900
Flags: W
HStem: 299 62<235 665>
LayerCount: 2
Fore
SplineSet
235 299 m 5
 235 361 l 5
 665 361 l 5
 665 299 l 5
 235 299 l 5
EndSplineSet
Validated: 1
EndChar

StartChar: period
Encoding: 46 46 13
Width: 900
Flags: W
HStem: -9 154<396.691 503.309>
VStem: 373 154<14.6914 121.309>
LayerCount: 2
Fore
SplineSet
373 68 m 0
 373 111 407 145 450 145 c 4
 493 145 527 111 527 68 c 4
 527 25 493 -9 450 -9 c 0
 407 -9 373 25 373 68 c 0
EndSplineSet
Validated: 1
EndChar

StartChar: slash
Encoding: 47 47 14
Width: 900
Flags: W
LayerCount: 2
Fore
SplineSet
249 -160 m 5
 577 710 l 5
 651 710 l 5
 323 -160 l 5
 249 -160 l 5
EndSplineSet
Validated: 1
EndChar

StartChar: zero
Encoding: 48 48 15
Width: 900
Flags: W
HStem: -12 66<380.24 520.131> 584 66<379.36 521.198>
VStem: 221 77<164.045 477.946> 602 77<164.045 477.946>
LayerCount: 2
Fore
SplineSet
450 54 m 0
 480 54 506.333007812 63.5 529 82.5 c 0
 551.666992188 101.5 569.5 130.833007812 582.5 170.5 c 0
 595.5 210.166992188 602 260.333007812 602 321 c 0
 602 382.333007812 595.5 432.333007812 582.5 471 c 0
 569.5 509.666992188 551.666992188 538.166992188 529 556.5 c 0
 506.333007812 574.833007812 480 584 450 584 c 0
 420.666992188 584 394.5 574.833007812 371.5 556.5 c 0
 348.5 538.166992188 330.5 509.666992188 317.5 471 c 0
 304.5 432.333007812 298 382.333007812 298 321 c 0
 298 260.333007812 304.5 210.166992188 317.5 170.5 c 0
 330.5 130.833007812 348.5 101.5 371.5 82.5 c 0
 394.5 63.5 420.666992188 54 450 54 c 0
450 -12 m 0
 402.666992188 -12 362 1.1669921875 328 27.5 c 0
 294 53.8330078125 267.666992188 91.6669921875 249 141 c 0
 230.333007812 190.333007812 221 250.333007812 221 321 c 0
 221 428.333007812 241.5 510 282.5 566 c 0
 323.5 622 379.333007812 650 450 650 c 0
 521.333007812 650 577.333007812 622 618 566 c 0
 658.666992188 510 679 428.333007812 679 321 c 0
 679 250.333007812 669.833007812 190.333007812 651.5 141 c 0
 633.166992188 91.6669921875 606.833007812 53.8330078125 572.5 27.5 c 0
 538.166992188 1.1669921875 497.333007812 -12 450 -12 c 0
EndSplineSet
Validated: 1
EndChar

StartChar: one
Encoding: 49 49 16
Width: 900
Flags: W
HStem: 0 68<247 431 513 680> 538 53<288 390.909> 618 20G<445.333 513> 618 20G<445.333 513>
VStem: 431 82<68 538>
LayerCount: 2
Fore
SplineSet
247 0 m 1xe8
 247 68 l 1
 431 68 l 1
 431 538 l 1
 288 538 l 1
 288 591 l 1
 313.333007812 594.333007812 335.666992188 598.333007812 355 603 c 0
 374.333007812 607.666992188 392 612.833007812 408 618.5 c 0
 424 624.166992188 438.666992188 630.666992188 452 638 c 1
 513 638 l 1
 513 68 l 1
 680 68 l 1
 680 0 l 1
 247 0 l 1xe8
EndSplineSet
Validated: 1
EndChar

StartChar: two
Encoding: 50 50 17
Width: 900
Flags: W
HStem: 0 71<343.938 672> 506 21G<246 276.333> 583 67<335.614 507.227>
VStem: 558 79<376.409 533.121>
LayerCount: 2
Fore
SplineSet
223 0 m 1
 223 49 l 1
 295 112.333007812 355.833007812 168.166992188 405.5 216.5 c 0
 455.166992188 264.833007812 493 308.333007812 519 347 c 0
 545 385.666992188 558 422.666992188 558 458 c 0
 558 494.666992188 546.666992188 524.666992188 524 548 c 0
 501.333007812 571.333007812 466.333007812 583 419 583 c 0
 389 583 361.166992188 575.666992188 335.5 561 c 0
 309.833007812 546.333007812 286.666992188 528 266 506 c 1
 219 553 l 1
 247.666992188 582.333007812 278.5 605.833007812 311.5 623.5 c 0
 344.5 641.166992188 383.666992188 650 429 650 c 0
 471.666992188 650 508.5 642.166992188 539.5 626.5 c 0
 570.5 610.833007812 594.5 589 611.5 561 c 0
 628.5 533 637 500 637 462 c 0
 637 422 624.666992188 381.666992188 600 341 c 0
 575.333007812 300.333007812 540.833007812 257.5 496.5 212.5 c 0
 452.166992188 167.5 401 118.333007812 343 65 c 1
 363 67 383 68.5 403 69.5 c 0
 423 70.5 442.666992188 71 462 71 c 2
 672 71 l 1
 672 0 l 1
 223 0 l 1
EndSplineSet
Validated: 1
EndChar

StartChar: three
Encoding: 51 51 18
Width: 900
Flags: W
HStem: -12 68<328.621 525.202> 300 63<353 489.587> 518 21G<258.077 285.333> 583 67<338.908 518.211>
VStem: 562 84<420.386 543.004> 585 83<109.325 237.605>
LayerCount: 2
Fore
SplineSet
437 -12 m 0xf4
 400.333007812 -12 367.666992188 -7.6669921875 339 1 c 0
 310.333007812 9.6669921875 285.166992188 20.6669921875 263.5 34 c 0
 241.833007812 47.3330078125 223 62 207 78 c 1
 249 132 l 1
 270.333007812 112 296 94.3330078125 326 79 c 0
 356 63.6669921875 391.333007812 56 432 56 c 0
 461.333007812 56 487.5 60.8330078125 510.5 70.5 c 0
 533.5 80.1669921875 551.666992188 93.8330078125 565 111.5 c 0
 578.333007812 129.166992188 585 149.666992188 585 173 c 0xf4
 585 198.333007812 577.333007812 220.5 562 239.5 c 0
 546.666992188 258.5 522 273.333007812 488 284 c 0
 454 294.666992188 409 300 353 300 c 1
 353 363 l 1
 403.666992188 363 444.333007812 368.333007812 475 379 c 0
 505.666992188 389.666992188 527.833007812 403.833007812 541.5 421.5 c 0
 555.166992188 439.166992188 562 459.333007812 562 482 c 0
 562 513.333007812 550.166992188 538 526.5 556 c 0
 502.833007812 574 471.333007812 583 432 583 c 0
 402 583 373.5 577 346.5 565 c 0
 319.5 553 295.666992188 537.333007812 275 518 c 1
 231 570 l 1
 257.666992188 593.333007812 288.166992188 612.5 322.5 627.5 c 0
 356.833007812 642.5 394.333007812 650 435 650 c 0
 475 650 510.833007812 643.666992188 542.5 631 c 0
 574.166992188 618.333007812 599.333007812 600 618 576 c 0
 636.666992188 552 646 522.666992188 646 488 c 0xf8
 646 449.333007812 633.166992188 417.666992188 607.5 393 c 0
 581.833007812 368.333007812 549.333007812 349.333007812 510 336 c 1
 510 332 l 1
 538 326 564.166992188 315.833007812 588.5 301.5 c 0
 612.833007812 287.166992188 632.166992188 269 646.5 247 c 0
 660.833007812 225 668 199.333007812 668 170 c 0
 668 132 657.5 99.5 636.5 72.5 c 0
 615.5 45.5 587.666992188 24.6669921875 553 10 c 0
 518.333007812 -4.6669921875 479.666992188 -12 437 -12 c 0xf4
EndSplineSet
Validated: 1
EndChar

StartChar: four
Encoding: 52 52 19
Width: 900
Flags: W
HStem: 0 21G<518 596> 0 21G<518 596> 176 66<280 518 596 695> 618 20G<492.324 596> 618 20G<492.324 596>
VStem: 518 78<0 176 242 553>
LayerCount: 2
Fore
SplineSet
596 176 m 1xb4
 596 0 l 1
 518 0 l 1
 518 176 l 1
 189 176 l 1
 189 231 l 1
 508 638 l 1
 596 638 l 1
 596 242 l 1
 695 242 l 1
 695 176 l 1
 596 176 l 1xb4
518 242 m 1
 518 440 l 2
 518.666992188 457.333007812 519.5 476.166992188 520.5 496.5 c 0
 521.5 516.833007812 522.333007812 535.666992188 523 553 c 1
 518 553 l 1
 508 537.666992188 497.333007812 522.166992188 486 506.5 c 0
 474.666992188 490.833007812 463.666992188 475.333007812 453 460 c 2
 280 242 l 1
 518 242 l 1
EndSplineSet
Validated: 1
EndChar

StartChar: five
Encoding: 53 53 20
Width: 900
Flags: W
HStem: -12 68<322.777 516.184> 342 62<345.061 523.782> 567 71<352 640>
VStem: 589 83<124.257 280.577>
LayerCount: 2
Fore
SplineSet
436 -12 m 0
 398 -12 364.666992188 -7.8330078125 336 0.5 c 0
 307.333007812 8.8330078125 282.5 19.6669921875 261.5 33 c 0
 240.5 46.3330078125 222 60.3330078125 206 75 c 1
 247 129 l 1
 261 116.333007812 276.5 104.5 293.5 93.5 c 0
 310.5 82.5 330 73.5 352 66.5 c 0
 374 59.5 399 56 427 56 c 0
 457 56 484.333007812 62 509 74 c 0
 533.666992188 86 553.166992188 102.833007812 567.5 124.5 c 0
 581.833007812 146.166992188 589 172 589 202 c 0
 589 246 574.666992188 280.333007812 546 305 c 0
 517.333007812 329.666992188 479.333007812 342 432 342 c 0
 405.333007812 342 382.666992188 338.666992188 364 332 c 0
 345.333007812 325.333007812 324.666992188 315.666992188 302 303 c 1
 258 331 l 1
 279 638 l 1
 640 638 l 1
 640 567 l 1
 352 567 l 1
 335 378 l 1
 353 386 371.166992188 392.333007812 389.5 397 c 0
 407.833007812 401.666992188 429 404 453 404 c 0
 493.666992188 404 530.666992188 397 564 383 c 0
 597.333007812 369 623.666992188 347.166992188 643 317.5 c 0
 662.333007812 287.833007812 672 250 672 204 c 0
 672 158 660.833007812 118.833007812 638.5 86.5 c 0
 616.166992188 54.1669921875 587 29.6669921875 551 13 c 0
 515 -3.6669921875 476.666992188 -12 436 -12 c 0
EndSplineSet
Validated: 1
EndChar

StartChar: six
Encoding: 54 54 21
Width: 900
Flags: W
HStem: -12 65<389.454 545.69> 328 62<391.351 555.175> 531 21G<618 644.039> 581 69<412.431 586.4>
VStem: 227 77.0889<307.026 449.145> 606 78<113.389 277.021>
LayerCount: 2
Fore
SplineSet
471 -12 m 0
 436.333007812 -12 404.166992188 -5.6669921875 374.5 7 c 0
 344.833007812 19.6669921875 319 38.8330078125 297 64.5 c 0
 275 90.1669921875 257.833007812 122.166992188 245.5 160.5 c 0
 233.166992188 198.833007812 227 243.666992188 227 295 c 0
 227 359 234.333007812 413.5 249 458.5 c 0
 263.666992188 503.5 283.5 540 308.5 568 c 0
 333.5 596 362 616.666992188 394 630 c 0
 426 643.333007812 459.333007812 650 494 650 c 0
 532.666992188 650 566.666992188 643.5 596 630.5 c 0
 625.333007812 617.5 650.666992188 601.333007812 672 582 c 1
 626 531 l 1
 610 546.333007812 590.833007812 558.5 568.5 567.5 c 0
 546.166992188 576.5 523 581 499 581 c 0
 464.333007812 581 432.333007812 572 403 554 c 0
 373.666992188 536 349.833007812 506.166992188 331.5 464.5 c 0
 314.208984375 425.203125 305.072265625 372.711914062 304.088867188 307.026367188 c 1
 329.640625 331.805664062 357.444335938 351.629882812 387.5 366.5 c 0
 419.166992188 382.166992188 451.666992188 390 485 390 c 0
 524.333007812 390 559 382.666992188 589 368 c 0
 619 353.333007812 642.333007812 331.333007812 659 302 c 0
 675.666992188 272.666992188 684 236.333007812 684 193 c 0
 684 152.333007812 674.166992188 116.666992188 654.5 86 c 0
 634.833007812 55.3330078125 608.833007812 31.3330078125 576.5 14 c 0
 544.166992188 -3.3330078125 509 -12 471 -12 c 0
306.456054688 242.07421875 m 1
 309.432617188 211.915039062 315.114257812 185.223632812 323.5 162 c 0
 336.5 126 355.5 98.8330078125 380.5 80.5 c 0
 405.5 62.1669921875 435.666992188 53 471 53 c 0
 496.333007812 53 519.166992188 58.8330078125 539.5 70.5 c 0
 559.833007812 82.1669921875 576 98.5 588 119.5 c 0
 600 140.5 606 165 606 193 c 0
 606 237 594.333007812 270.5 571 293.5 c 0
 547.666992188 316.5 514 328 470 328 c 0
 444.666992188 328 417.333007812 321.166992188 388 307.5 c 0
 359.901367188 294.408203125 332.719726562 272.599609375 306.456054688 242.07421875 c 1
EndSplineSet
Validated: 1
EndChar

StartChar: seven
Encoding: 55 55 22
Width: 900
Flags: W
HStem: 0 21G<376 463> 0 21G<376 463> 567 71<220 588>
VStem: 376 86<0 191.53>
LayerCount: 2
Fore
SplineSet
376 0 m 1xb0
 378.666992188 60.6669921875 384.333007812 116 393 166 c 0
 401.666992188 216 414.333007812 263.166992188 431 307.5 c 0
 447.666992188 351.833007812 469 395 495 437 c 0
 521 479 552 522.333007812 588 567 c 1
 220 567 l 1
 220 638 l 1
 682 638 l 1
 682 587 l 1
 639.333007812 539 604.333007812 493 577 449 c 0
 549.666992188 405 528 360.333007812 512 315 c 0
 496 269.666992188 484.166992188 221.5 476.5 170.5 c 0
 468.833007812 119.5 464 62.6669921875 462 0 c 1
 376 0 l 1xb0
EndSplineSet
Validated: 1
EndChar

StartChar: eight
Encoding: 56 56 23
Width: 900
Flags: W
HStem: -12 61<356.611 549.684> 589 61<376.156 533.501>
VStem: 218 75<105.862 240.35> 258 75<423.708 547.951> 582 71<406.86 542.385> 602 79<97.0402 224.463>
LayerCount: 2
Fore
SplineSet
454 49 m 0xe4
 501.333007812 49 537.833007812 59.3330078125 563.5 80 c 0
 589.166992188 100.666992188 602 127.666992188 602 161 c 0
 602 183 596.833007812 201.5 586.5 216.5 c 0
 576.166992188 231.5 562 244.166992188 544 254.5 c 0
 526 264.833007812 504.833007812 274.333007812 480.5 283 c 0
 456.166992188 291.666992188 430 300.666992188 402 310 c 1
 381.333007812 298.666992188 362.666992188 286.333007812 346 273 c 0
 329.333007812 259.666992188 316.333007812 244.666992188 307 228 c 0
 297.666992188 211.333007812 293 192.333007812 293 171 c 0
 293 147.666992188 299.5 126.833007812 312.5 108.5 c 0
 325.5 90.1669921875 344.166992188 75.6669921875 368.5 65 c 0
 392.833007812 54.3330078125 421.333007812 49 454 49 c 0xe4
502 348 m 1
 555.333007812 386.666992188 582 429.333007812 582 476 c 0
 582 496.666992188 577 515.5 567 532.5 c 0
 557 549.5 542.5 563.166992188 523.5 573.5 c 0
 504.5 583.833007812 481 589 453 589 c 0
 418.333007812 589 389.666992188 579.5 367 560.5 c 0
 344.333007812 541.5 333 516.666992188 333 486 c 0xd8
 333 460.666992188 340.5 439.666992188 355.5 423 c 0
 370.5 406.333007812 390.833007812 392.166992188 416.5 380.5 c 0
 442.166992188 368.833007812 470.666992188 358 502 348 c 1
452 -12 m 0
 404 -12 362.5 -4.5 327.5 10.5 c 0
 292.5 25.5 265.5 46.3330078125 246.5 73 c 0
 227.5 99.6669921875 218 129.666992188 218 163 c 0xe4
 218 192.333007812 224.666992188 217.833007812 238 239.5 c 0
 251.333007812 261.166992188 268.5 279.5 289.5 294.5 c 0
 310.5 309.5 332.333007812 322.333007812 355 333 c 1
 355 337 l 1
 328.333007812 354.333007812 305.5 375.166992188 286.5 399.5 c 0
 267.5 423.833007812 258 452.666992188 258 486 c 0
 258 518.666992188 266.5 547.333007812 283.5 572 c 0
 300.5 596.666992188 323.833007812 615.833007812 353.5 629.5 c 0
 383.166992188 643.166992188 417 650 455 650 c 0
 517 650 565.5 634.166992188 600.5 602.5 c 0
 635.5 570.833007812 653 530 653 480 c 0xd8
 653 450 643.5 421.833007812 624.5 395.5 c 0
 605.5 369.166992188 582.666992188 346.666992188 556 328 c 1
 556 324 l 1
 579.333007812 312 600.5 299 619.5 285 c 0
 638.5 271 653.5 254 664.5 234 c 0
 675.5 214 681 188.666992188 681 158 c 0xc4
 681 126.666992188 672.166992188 98.1669921875 654.5 72.5 c 0
 636.833007812 46.8330078125 611 26.3330078125 577 11 c 0
 543 -4.3330078125 501.333007812 -12 452 -12 c 0
EndSplineSet
Validated: 1
EndChar

StartChar: nine
Encoding: 57 57 24
Width: 900
Flags: W
HStem: -12 68<316.508 488.252> 248 62<346.855 509.603> 585 65<355.261 510.555>
VStem: 217 78<361.302 523.948> 595.896 78.1045<187.609 329.876>
LayerCount: 2
Fore
SplineSet
407 -12 m 0
 367.666992188 -12 333.333007812 -5.5 304 7.5 c 0
 274.666992188 20.5 249.666992188 36.3330078125 229 55 c 1
 275 107 l 1
 291 91.6669921875 310.166992188 79.3330078125 332.5 70 c 0
 354.833007812 60.6669921875 378 56 402 56 c 0
 436.666992188 56 468.666992188 65.1669921875 498 83.5 c 0
 527.333007812 101.833007812 551 131.833007812 569 173.5 c 0
 585.881835938 212.578125 594.846679688 264.703125 595.895507812 329.875976562 c 1
 571.19921875 305.608398438 543.734375 286.149414062 513.5 271.5 c 0
 481.166992188 255.833007812 448.333007812 248 415 248 c 0
 375.666992188 248 341.166992188 255.333007812 311.5 270 c 0
 281.833007812 284.666992188 258.666992188 306.666992188 242 336 c 0
 225.333007812 365.333007812 217 401.666992188 217 445 c 0
 217 485.666992188 226.833007812 521.5 246.5 552.5 c 0
 266.166992188 583.5 292.166992188 607.5 324.5 624.5 c 0
 356.833007812 641.5 391.666992188 650 429 650 c 0
 464.333007812 650 496.666992188 643.666992188 526 631 c 0
 555.333007812 618.333007812 581.166992188 599.166992188 603.5 573.5 c 0
 625.833007812 547.833007812 643.166992188 515.833007812 655.5 477.5 c 0
 667.833007812 439.166992188 674 394.333007812 674 343 c 0
 674 279 666.666992188 224.333007812 652 179 c 0
 637.333007812 133.666992188 617.5 97 592.5 69 c 0
 567.5 41 538.833007812 20.5 506.5 7.5 c 0
 474.166992188 -5.5 441 -12 407 -12 c 0
593.639648438 394.879882812 m 1
 590.690429688 425.368164062 584.977539062 452.241210938 576.5 475.5 c 0
 563.5 511.166992188 544.666992188 538.333007812 520 557 c 0
 495.333007812 575.666992188 465.333007812 585 430 585 c 0
 404.666992188 585 381.833007812 579.166992188 361.5 567.5 c 0
 341.166992188 555.833007812 325 539.5 313 518.5 c 0
 301 497.5 295 473 295 445 c 0
 295 401.666992188 306.666992188 368.333007812 330 345 c 0
 353.333007812 321.666992188 387 310 431 310 c 0
 456.333007812 310 483.666992188 316.833007812 513 330.5 c 0
 540.776367188 343.44140625 567.65625 364.901367188 593.639648438 394.879882812 c 1
EndSplineSet
Validated: 1
EndChar

StartChar: less
Encoding: 60 60 27
Width: 900
Flags: W
HStem: 596 20G<613.514 643>
LayerCount: 2
Fore
SplineSet
643 48 m 1
 270 301 l 1
 270 363 l 1
 643 616 l 1
 643 537 l 1
 342 334 l 1
 342 330 l 1
 643 127 l 1
 643 48 l 1
EndSplineSet
Validated: 1
EndChar

StartChar: equal
Encoding: 61 61 28
Width: 900
Flags: W
HStem: 192 62<235 665> 406 62<235 665>
LayerCount: 2
Fore
SplineSet
235 406 m 1
 235 468 l 1
 665 468 l 1
 665 406 l 1
 235 406 l 1
235 192 m 1
 235 254 l 1
 665 254 l 1
 665 192 l 1
 235 192 l 1
EndSplineSet
Validated: 1
EndChar

StartChar: greater
Encoding: 62 62 29
Width: 900
Flags: W
HStem: 596 20G<257 286.486>
LayerCount: 2
Fore
SplineSet
257 48 m 1
 257 127 l 1
 558 330 l 1
 558 334 l 1
 257 537 l 1
 257 616 l 1
 630 363 l 1
 630 301 l 1
 257 48 l 1
EndSplineSet
Validated: 1
EndChar

StartChar: question
Encoding: 63 63 30
Width: 900
Flags: W
HStem: 6.4 123.2<399.353 484.647> 556 21G<299.222 330> 614 68<368.336 526.171>
VStem: 380.4 123.2<25.3531 110.647> 561 81<456.67 579.272>
LayerCount: 2
Fore
SplineSet
405 232 m 2
 405 232 402.5 285.833007812 411.5 307.5 c 0
 420.5 329.166992188 433.166992188 348.333007812 449.5 365 c 0
 465.833007812 381.666992188 482.5 397.833007812 499.5 413.5 c 0
 516.5 429.166992188 531 445.166992188 543 461.5 c 0
 555 477.833007812 561 496.333007812 561 517 c 0
 561 544.333007812 551.833007812 567.333007812 533.5 586 c 0
 515.166992188 604.666992188 487.666992188 614 451 614 c 0
 425.666992188 614 402.166992188 608.833007812 380.5 598.5 c 0
 358.833007812 588.166992188 339 574 321 556 c 1
 272 601 l 1
 294.666992188 624.333007812 321.333007812 643.666992188 352 659 c 0
 382.666992188 674.333007812 417.333007812 682 456 682 c 0
 493.333007812 682 525.833007812 675.5 553.5 662.5 c 0
 581.166992188 649.5 602.833007812 631.333007812 618.5 608 c 0
 634.166992188 584.666992188 642 557.333007812 642 526 c 0
 642 498.666992188 636 475.166992188 624 455.5 c 0
 612 435.833007812 597.166992188 417.666992188 579.5 401 c 0
 561.833007812 384.333007812 544.666992188 368.166992188 528 352.5 c 0
 511.333007812 336.833007812 497.833007812 319.333007812 487.5 300 c 0
 477.166992188 280.666992188 478 258.305664062 478 232 c 1
 405 232 l 2
EndSplineSet
Refer: 13 46 N 0.8 0 0 0.8 82 13.6 2
Validated: 33
EndChar

StartChar: at
Encoding: 64 64 31
Width: 900
Flags: W
HStem: -144 55<402.503 595.842> 88 58<461.552 578.616> 336 54<531.804 632> 580 55<401.405 571.482>
VStem: 199 63<89.0993 403.424> 374 66<166.777 276.202> 632 64<187.994 336 386.606 516.527> 646 50<100 158>
LayerCount: 2
Fore
SplineSet
520 146 m 0xfe
 538.666992188 146 557.333007812 151.5 576 162.5 c 0
 594.666992188 173.5 613.333007812 189.333007812 632 210 c 1
 632 336 l 1
 562.666992188 326 513.333007812 312 484 294 c 0
 454.666992188 276 440 251.666992188 440 221 c 0
 440 197.666992188 447.333007812 179.333007812 462 166 c 0
 476.666992188 152.666992188 496 146 520 146 c 0xfe
491 -144 m 0
 451.666992188 -144 414.333007812 -135.666992188 379 -119 c 0
 343.666992188 -102.333007812 312.666992188 -77.3330078125 286 -44 c 0
 259.333007812 -10.6669921875 238.166992188 30.6669921875 222.5 80 c 0
 206.833007812 129.333007812 199 186 199 250 c 0
 199 335.333007812 212.166992188 406.5 238.5 463.5 c 0
 264.833007812 520.5 300.166992188 563.333007812 344.5 592 c 0
 388.833007812 620.666992188 438.333007812 635 493 635 c 0
 539 635 577 624.666992188 607 604 c 0
 637 583.333007812 659.333007812 555 674 519 c 0
 688.666992188 483 696 442.333007812 696 397 c 2xfe
 696 100 l 1
 646 100 l 1xfd
 639 158 l 1
 635 158 l 1
 620.333007812 139.333007812 601.166992188 123 577.5 109 c 0
 553.833007812 95 529 88 503 88 c 0
 479.666992188 88 458.166992188 93.3330078125 438.5 104 c 0
 418.833007812 114.666992188 403.166992188 129.833007812 391.5 149.5 c 0
 379.833007812 169.166992188 374 192.333007812 374 219 c 0
 374 253 384.166992188 281.333007812 404.5 304 c 0
 424.833007812 326.666992188 454.666992188 345 494 359 c 0
 533.333007812 373 581.333007812 383.333007812 638 390 c 1
 638 404 l 2
 638 436 632.833007812 465.333007812 622.5 492 c 0
 612.166992188 518.666992188 596.166992188 540 574.5 556 c 0
 552.833007812 572 524.333007812 580 489 580 c 0
 459 580 430.333007812 573 403 559 c 0
 375.666992188 545 351.333007812 524.166992188 330 496.5 c 0
 308.666992188 468.833007812 292 434.166992188 280 392.5 c 0
 268 350.833007812 262 302.333007812 262 247 c 0
 262 175.666992188 272.166992188 114.833007812 292.5 64.5 c 0
 312.833007812 14.1669921875 340.5 -24 375.5 -50 c 0
 410.5 -76 449.666992188 -89 493 -89 c 0
 523 -89 549.166992188 -85.1669921875 571.5 -77.5 c 0
 593.833007812 -69.8330078125 614.666992188 -58.6669921875 634 -44 c 1
 662 -89 l 1
 636 -106.333007812 609.166992188 -119.833007812 581.5 -129.5 c 0
 553.833007812 -139.166992188 523.666992188 -144 491 -144 c 0
EndSplineSet
Validated: 1
EndChar

StartChar: bracketleft
Encoding: 91 91 33
Width: 900
Flags: W
HStem: -152 47<441 652> 661 47<441 652>
VStem: 375 66<-105 661>
LayerCount: 2
Fore
SplineSet
375 -152 m 1
 375 708 l 1
 652 708 l 1
 652 661 l 1
 441 661 l 1
 441 -105 l 1
 652 -105 l 1
 652 -152 l 1
 375 -152 l 1
EndSplineSet
Validated: 1
EndChar

StartChar: backslash
Encoding: 92 92 34
Width: 900
Flags: W
LayerCount: 2
Fore
SplineSet
577 -160 m 1
 249 710 l 1
 323 710 l 1
 651 -160 l 1
 577 -160 l 1
EndSplineSet
Validated: 1
EndChar

StartChar: bracketright
Encoding: 93 93 35
Width: 900
Flags: W
HStem: -152 47<248 459> 661 47<248 459>
VStem: 459 66<-105 661>
LayerCount: 2
Fore
SplineSet
248 -152 m 1
 248 -105 l 1
 459 -105 l 1
 459 661 l 1
 248 661 l 1
 248 708 l 1
 525 708 l 1
 525 -152 l 1
 248 -152 l 1
EndSplineSet
Validated: 1
EndChar

StartChar: asciicircum
Encoding: 94 94 36
Width: 900
Flags: W
HStem: 650 20G<406.073 493.927>
LayerCount: 2
Fore
SplineSet
261 284 m 1
 414 670 l 1
 486 670 l 1
 639 284 l 1
 567 284 l 1
 501 460 l 1
 452 593 l 1
 448 593 l 1
 399 460 l 1
 333 284 l 1
 261 284 l 1
EndSplineSet
Validated: 1
EndChar

StartChar: underscore
Encoding: 95 95 37
Width: 900
Flags: W
HStem: -36 71<125 775>
LayerCount: 2
Fore
SplineSet
125 -36 m 5
 125 35 l 5
 775 35 l 1
 775 -36 l 1
 125 -36 l 5
EndSplineSet
Validated: 1
EndChar

StartChar: grave
Encoding: 96 96 38
Width: 900
Flags: W
HStem: 568 209
VStem: 314 200
LayerCount: 2
Fore
SplineSet
471 568 m 5
 314 721 l 5
 372 777 l 5
 514 609 l 5
 471 568 l 5
EndSplineSet
Validated: 1
EndChar

StartChar: a
Encoding: 97 97 39
Width: 900
Flags: W
HStem: -0 21G<161.568 223.395 695.008 774.992> -0 21G<161.568 223.395 695.008 774.992> 245.008 79.9844<346.798 561.025> 550 20G<275.792 355.78> 550 20G<275.792 355.78>
VStem: 275.792 79.9863<328.14 570> 695.008 79.9844<0 111.039>
LayerCount: 2
Fore
SplineSet
125 56.568359375 m 1xb6
 273.456054688 205.024414062 275.791992188 316.375 275.791992188 570 c 1
 355.780273438 570 l 1
 355.780273438 563.390625 355.778320312 557.139648438 355.778320312 550.676757812 c 0
 355.778320312 465.3984375 355.456054688 392.056640625 346.797851562 324.9921875 c 1
 381.198242188 324.9921875 415.599609375 324.9921875 450 324.9921875 c 0
 647.037109375 324.9921875 774.9921875 197.072265625 774.9921875 -0 c 1
 695.0078125 -0 l 1
 695.0078125 79.0732421875 670.502929688 139.177734375 629.840820312 179.840820312 c 0
 589.177734375 220.502929688 529.073242188 245.0078125 450 245.0078125 c 0
 410.440429688 245.0078125 370.880859375 245.0078125 331.321289062 245.0078125 c 1
 308.712890625 160.784179688 265.220703125 83.65234375 181.568359375 0 c 1
 125 56.568359375 l 1xb6
EndSplineSet
Validated: 1
EndChar

StartChar: e
Encoding: 101 101 40
Width: 900
Flags: W
HStem: 0 21G<695.008 774.992 695.008 774.992> 245.008 79.9844<125 561.025> 447.5 80<175 580>
VStem: 695.008 79.9844<0 111.039>
LayerCount: 2
Fore
SplineSet
175 527.5 m 1
 580 527.5 l 1
 580 447.5 l 1
 175 447.5 l 1
 175 527.5 l 1
EndSplineSet
Refer: 41 104 S 1 0 0 1 0 0 2
Validated: 1
EndChar

StartChar: h
Encoding: 104 104 41
Width: 900
Flags: W
HStem: -0 21G<695.008 774.992> -0 21G<695.008 774.992> 245.008 79.9844<125 561.025>
VStem: 695.008 79.9844<0 111.039>
LayerCount: 2
Fore
SplineSet
125 245.0078125 m 5xb0
 125 324.9921875 l 5
 450 324.9921875 l 6
 647.037109375 324.9921875 774.9921875 197.072265625 774.9921875 -0 c 5
 695.0078125 -0 l 5
 695.0078125 79.0732421875 670.502929688 139.177734375 629.840820312 179.840820312 c 4
 589.177734375 220.502929688 529.073242188 245.0078125 450 245.0078125 c 6
 125 245.0078125 l 5xb0
EndSplineSet
Validated: 1
EndChar

StartChar: i
Encoding: 105 105 42
Width: 900
Flags: W
HStem: -0 21G<695.008 774.992> -0 21G<695.008 774.992> 245.008 79.9844<125 410 490 559.59> 550 20G<410 490> 550 20G<410 490>
VStem: 410 80<324.992 570> 695.008 79.9844<0 111.262>
LayerCount: 2
Fore
SplineSet
125 245.0078125 m 1xb6
 125 324.9921875 l 1
 410 324.9921875 l 1
 410 570 l 5
 490 570 l 5
 490 323.1640625 l 1
 664.178710938 306.90625 774.9921875 183.397460938 774.9921875 -0 c 1
 695.0078125 -0 l 1
 695.0078125 79.0732421875 670.502929688 139.177734375 629.840820312 179.840820312 c 0
 589.177734375 220.502929688 529.073242188 245.0078125 450 245.0078125 c 2
 125 245.0078125 l 1xb6
EndSplineSet
Validated: 1
EndChar

StartChar: o
Encoding: 111 111 43
Width: 900
Flags: W
HStem: -0 21G<695.008 774.992> -0 21G<695.008 774.992> 245.008 79.9844<238.139 561.025> 573.423 20G<373.431 413.431> 573.423 20G<373.431 413.431>
VStem: 695.008 79.9844<0 111.039>
LayerCount: 2
Fore
SplineSet
125 324.9921875 m 1xb4
 393.430664062 593.422851562 l 1
 450 536.853515625 l 1
 238.138671875 324.9921875 l 1
 450 324.9921875 l 2
 647.037109375 324.9921875 774.9921875 197.072265625 774.9921875 -0 c 1
 695.0078125 -0 l 1
 695.0078125 79.0732421875 670.502929688 139.177734375 629.840820312 179.840820312 c 0
 589.177734375 220.502929688 529.073242188 245.0078125 450 245.0078125 c 2
 125 245.0078125 l 1
 125 324.9921875 l 1xb4
EndSplineSet
Validated: 1
EndChar

StartChar: u
Encoding: 117 117 44
Width: 900
Flags: W
HStem: 0 21G<695.008 774.992 695.008 774.992> 245.008 79.9844<125 561.025> 467 21G<430 470> 686.569 20G<556.431 596.431>
VStem: 695.008 79.9844<0 111.039>
LayerCount: 2
Fore
SplineSet
393.430664062 523.569335938 m 1
 576.430664062 706.569335938 l 1
 633 650 l 1
 450 467 l 1
 393.430664062 523.569335938 l 1
EndSplineSet
Refer: 41 104 S 1 0 0 1 0 0 2
Validated: 1
EndChar

StartChar: w
Encoding: 119 119 45
Width: 900
Flags: W
HStem: 0 79.9844<230.698 775> 245 79.9844<230.695 287.492>
VStem: 125 79.9844<105.172 219.811>
LayerCount: 2
Fore
SplineSet
287.4921875 245 m 5
 239.547851562 245 204.984375 210.434570312 204.984375 162.4921875 c 4
 204.984375 114.547851562 239.549804688 79.984375 287.4921875 79.984375 c 6
 775 79.984375 l 5
 775 0 l 5
 287.4921875 0 l 6
 195.443359375 0 125 70.435546875 125 162.4921875 c 4
 125 254.541015625 195.435546875 324.984375 287.4921875 324.984375 c 5
 287.4921875 245 l 5
EndSplineSet
Validated: 1
EndChar

StartChar: y
Encoding: 121 121 46
Width: 900
Flags: W
HStem: 365 80<325 490>
VStem: 490 80<200 365>
LayerCount: 2
Fore
SplineSet
570 445 m 5
 570 200 l 5
 490 200 l 5
 490 365 l 5
 325 365 l 5
 325 445 l 5
 570 445 l 5
EndSplineSet
Validated: 1
EndChar

StartChar: braceleft
Encoding: 123 123 47
Width: 900
Flags: W
HStem: -152 47<500.595 652> 252 52<270 382.793> 661 47<500.595 652>
VStem: 406 70<-65.3721 172.969 382.969 621.887> 415 67<-17.8452 222.712 333.396 573.907>
CounterMasks: 1 e0
LayerCount: 2
Fore
SplineSet
591 -152 m 2xf0
 528.333007812 -152 481.833007812 -142.666992188 451.5 -124 c 0
 421.166992188 -105.333007812 406 -70.3330078125 406 -19 c 0xf0
 406 5.6669921875 406.666992188 28.3330078125 408 49 c 0
 409.333007812 69.6669921875 410.833007812 90.1669921875 412.5 110.5 c 0
 414.166992188 130.833007812 415 152 415 174 c 0
 415 187.333007812 411.166992188 199.833007812 403.5 211.5 c 0
 395.833007812 223.166992188 381.5 232.833007812 360.5 240.5 c 0
 339.5 248.166992188 309.333007812 252 270 252 c 1
 270 304 l 1
 309.333007812 304 339.5 307.833007812 360.5 315.5 c 0
 381.5 323.166992188 395.833007812 333 403.5 345 c 0
 411.166992188 357 415 369.333007812 415 382 c 0xe8
 415 402.666992188 414.166992188 423.5 412.5 444.5 c 0
 410.833007812 465.5 409.333007812 486.666992188 408 508 c 0
 406.666992188 529.333007812 406 551.666992188 406 575 c 0
 406 626.333007812 421.166992188 661.333007812 451.5 680 c 0
 481.833007812 698.666992188 528.333007812 708 591 708 c 2
 652 708 l 1
 652 661 l 1
 600 661 l 2
 566 661 540.166992188 657.833007812 522.5 651.5 c 0
 504.833007812 645.166992188 492.666992188 635.5 486 622.5 c 0
 479.333007812 609.5 476 592 476 570 c 0xf0
 476 541.333007812 477 511.833007812 479 481.5 c 0
 481 451.166992188 482 420.333007812 482 389 c 0
 482 357 475.5 332.333007812 462.5 315 c 0
 449.5 297.666992188 425.666992188 286 391 280 c 1
 391 276 l 1
 425.666992188 270 449.5 258.333007812 462.5 241 c 0
 475.5 223.666992188 482 199 482 167 c 0xe8
 482 133.666992188 481 102.833007812 479 74.5 c 0
 477 46.1669921875 476 16.6669921875 476 -14 c 0
 476 -35.3330078125 479.333007812 -52.6669921875 486 -66 c 0
 492.666992188 -79.3330078125 504.833007812 -89.1669921875 522.5 -95.5 c 0
 540.166992188 -101.833007812 566 -105 600 -105 c 2
 652 -105 l 1
 652 -152 l 1
 591 -152 l 2xf0
EndSplineSet
Validated: 1
EndChar

StartChar: bar
Encoding: 124 124 48
Width: 900
Flags: W
VStem: 413 74<-250 750>
LayerCount: 2
Fore
SplineSet
413 -250 m 1
 413 750 l 1
 487 750 l 1
 487 -250 l 1
 413 -250 l 1
EndSplineSet
Validated: 1
EndChar

StartChar: braceright
Encoding: 125 125 49
Width: 900
Flags: W
HStem: -152 47<249 400.246> 252 52<517.207 630> 661 47<249 400.246>
VStem: 419 66<-17.8452 222.712 333.396 573.907> 425 69<-65.3721 172.969 382.969 621.887>
CounterMasks: 1 e0
LayerCount: 2
Fore
SplineSet
249 -152 m 1xe8
 249 -105 l 1
 300 -105 l 2
 334.666992188 -105 360.833007812 -101.833007812 378.5 -95.5 c 0
 396.166992188 -89.1669921875 408.333007812 -79.3330078125 415 -66 c 0
 421.666992188 -52.6669921875 425 -35.3330078125 425 -14 c 0xe8
 425 16.6669921875 424 46.1669921875 422 74.5 c 0
 420 102.833007812 419 133.666992188 419 167 c 0
 419 199 425.333007812 223.666992188 438 241 c 0
 450.666992188 258.333007812 474.333007812 270 509 276 c 1
 509 280 l 1
 474.333007812 286 450.666992188 297.666992188 438 315 c 0
 425.333007812 332.333007812 419 357 419 389 c 0xf0
 419 420.333007812 420 451.166992188 422 481.5 c 0
 424 511.833007812 425 541.333007812 425 570 c 0
 425 592 421.666992188 609.5 415 622.5 c 0
 408.333007812 635.5 396.166992188 645.166992188 378.5 651.5 c 0
 360.833007812 657.833007812 334.666992188 661 300 661 c 2
 249 661 l 1
 249 708 l 1
 310 708 l 2
 372.666992188 708 419 698.666992188 449 680 c 0
 479 661.333007812 494 626.333007812 494 575 c 0xe8
 494 551.666992188 493.333007812 529.333007812 492 508 c 0
 490.666992188 486.666992188 489.166992188 465.5 487.5 444.5 c 0
 485.833007812 423.5 485 402.666992188 485 382 c 0
 485 369.333007812 488.833007812 357 496.5 345 c 0
 504.166992188 333 518.5 323.166992188 539.5 315.5 c 0
 560.5 307.833007812 590.666992188 304 630 304 c 1
 630 252 l 1
 590.666992188 252 560.5 248.166992188 539.5 240.5 c 0
 518.5 232.833007812 504.166992188 223.166992188 496.5 211.5 c 0
 488.833007812 199.833007812 485 187.333007812 485 174 c 0xf0
 485 152 485.833007812 130.833007812 487.5 110.5 c 0
 489.166992188 90.1669921875 490.666992188 69.6669921875 492 49 c 0
 493.333007812 28.3330078125 494 5.6669921875 494 -19 c 0
 494 -70.3330078125 479 -105.333007812 449 -124 c 0
 419 -142.666992188 372.666992188 -152 310 -152 c 2
 249 -152 l 1xe8
EndSplineSet
Validated: 1
EndChar

StartChar: asciitilde
Encoding: 126 126 50
Width: 900
Flags: W
HStem: 257 62<485.863 588.26> 341 62<312.46 414.025>
LayerCount: 2
Fore
SplineSet
538 257 m 0
 518.666992188 257 501 261.333007812 485 270 c 0
 469 278.666992188 454.166992188 288.5 440.5 299.5 c 0
 426.833007812 310.5 413.5 320.166992188 400.5 328.5 c 0
 387.5 336.833007812 374 341 360 341 c 0
 350 341 340.333007812 338.666992188 331 334 c 0
 321.666992188 329.333007812 312.5 320.833007812 303.5 308.5 c 0
 294.5 296.166992188 286.333007812 278.333007812 279 255 c 1
 226 278 l 1
 243.333007812 325.333007812 264.166992188 358 288.5 376 c 0
 312.833007812 394 337.333007812 403 362 403 c 0
 382 403 399.833007812 398.666992188 415.5 390 c 0
 431.166992188 381.333007812 445.833007812 371.5 459.5 360.5 c 0
 473.166992188 349.5 486.5 339.833007812 499.5 331.5 c 0
 512.5 323.166992188 526 319 540 319 c 0
 550.666992188 319 560.666992188 321.333007812 570 326 c 0
 579.333007812 330.666992188 588.333007812 339.166992188 597 351.5 c 0
 605.666992188 363.833007812 613.666992188 381.666992188 621 405 c 1
 674 381 l 1
 656.666992188 334.333007812 636 302 612 284 c 0
 588 266 563.333007812 257 538 257 c 0
EndSplineSet
Validated: 1
EndChar

StartChar: u_u
Encoding: 256 57344 52
Width: 900
Flags: W
HStem: 0 21G<695.008 774.992 695.008 774.992> 245.008 79.9844<125 561.025> 467 21G<247 287 572 612> 686.569 20G<373.431 413.431 698.431 738.431>
VStem: 695.008 79.9844<0 111.039>
LayerCount: 2
Fore
SplineSet
535.430664062 523.569335938 m 1
 718.430664062 706.569335938 l 1
 775 650 l 1
 592 467 l 1
 535.430664062 523.569335938 l 1
210.430664062 523.569335938 m 1
 393.430664062 706.569335938 l 1
 450 650 l 1
 267 467 l 1
 210.430664062 523.569335938 l 1
EndSplineSet
Refer: 41 104 S 1 0 0 1 0 0 2
Validated: 1
Ligature2: "liga" U U
Ligature2: "liga" U u
Ligature2: "liga" u U
Ligature2: "liga" u u
LCarets2: 1 0
EndChar

StartChar: o_w
Encoding: 257 57345 59
Width: 900
Flags: W
HStem: 0 79.9844<230.698 775> 245 79.9844<230.695 287.492> 448 20G<613 653>
VStem: 125 79.9844<105.172 219.811>
LayerCount: 2
Fore
SplineSet
450 285 m 1
 633 468 l 1
 689.569335938 411.430664062 l 1
 506.569335938 228.430664062 l 1
 450 285 l 1
EndSplineSet
Refer: 45 119 S 1 0 0 1 0 0 2
Validated: 1
Ligature2: "liga" o w
Ligature2: "liga" O w
Ligature2: "liga" o W
Ligature2: "liga" O W
LCarets2: 1 0
EndChar

StartChar: e_e
Encoding: 258 57348 60
Width: 900
Flags: W
HStem: 245 80<125 530> 490 80<530 695>
VStem: 695 80<325 490>
LayerCount: 2
Fore
SplineSet
125 325 m 1
 530 325 l 1
 530 245 l 1
 125 245 l 1
 125 325 l 1
EndSplineSet
Refer: 46 121 N 1 0 0 1 205 125 2
Validated: 1
Ligature2: "liga" e e
Ligature2: "liga" E e
Ligature2: "liga" e E
Ligature2: "liga" E E
LCarets2: 1 0
EndChar

StartChar: o_o
Encoding: 260 57346 63
Width: 900
Flags: W
HStem: 0 79.9844<230.698 775> 245 79.9844<230.695 287.492> 245 80<450 775>
VStem: 125 79.9844<105.172 219.811>
LayerCount: 2
Fore
SplineSet
450 325 m 1xb0
 775 325 l 1
 775 245 l 1
 450 245 l 1
 450 325 l 1xb0
EndSplineSet
Refer: 45 119 S 1 0 0 1 0 0 2
Validated: 1
Ligature2: "liga" O O
Ligature2: "liga" o O
Ligature2: "liga" O o
Ligature2: "liga" o o
LCarets2: 1 0
EndChar

StartChar: b
Encoding: 98 98 66
Width: 900
Flags: W
HStem: 0 21G<125.008 204.992 615 695> 0 21G<125.008 204.992 615 695> 305 20G<615 695> 570.008 79.9844<605.484 775>
VStem: 125.008 79.9844<0 169.539> 615 80<0 325>
LayerCount: 2
Fore
SplineSet
695 325 m 5xbc
 695 0 l 5
 615 0 l 5
 615 325 l 5
 695 325 l 5xbc
775 570.0078125 m 1
 422.1015625 570.0078125 204.9921875 352.962890625 204.9921875 -0 c 1
 125.0078125 -0 l 1
 125.0078125 397.065429688 377.9453125 649.9921875 775 649.9921875 c 1
 775 570.0078125 l 1
EndSplineSet
Validated: 1
EndChar

StartChar: d
Encoding: 100 100 82
Width: 900
Flags: W
HStem: -0 21G<125.008 204.992 699 739> -0 21G<125.008 204.992 699 739> 570.008 79.9844<605.484 775>
VStem: 125.008 79.9844<0 169.539>
LayerCount: 2
Fore
SplineSet
545.759765625 286.37890625 m 1xb0
 775.569335938 56.5693359375 l 1
 719 0 l 1
 489.190429688 229.809570312 l 1
 545.759765625 286.37890625 l 1xb0
775 570.0078125 m 1
 422.1015625 570.0078125 204.9921875 352.962890625 204.9921875 -0 c 1
 125.0078125 -0 l 1
 125.0078125 397.065429688 377.9453125 649.9921875 775 649.9921875 c 1
 775 570.0078125 l 1
EndSplineSet
Validated: 1
EndChar

StartChar: f
Encoding: 102 102 83
Width: 900
Flags: W
HStem: 0 79.9844<605.484 775> 447.492 80<450 775> 629.992 20G<125.008 204.992> 629.992 20G<125.008 204.992>
VStem: 125.008 79.9844<480.453 649.992>
LayerCount: 2
Fore
SplineSet
450 447.4921875 m 1xc8
 450 527.4921875 l 1
 775 527.4921875 l 1
 775 447.4921875 l 1
 450 447.4921875 l 1xc8
775 79.984375 m 5
 775 0 l 5
 377.9453125 0 125.0078125 252.926757812 125.0078125 649.9921875 c 5
 204.9921875 649.9921875 l 5xe8
 204.9921875 297.029296875 422.1015625 79.984375 775 79.984375 c 5
EndSplineSet
Validated: 1
EndChar

StartChar: g
Encoding: 103 103 84
Width: 900
Flags: W
HStem: 0 79.9844<605.484 775> 363.613 21G<525.76 565.76> 629.992 20G<125.008 204.992 699 739> 629.992 20G<125.008 204.992 699 739>
VStem: 125.008 79.9844<480.453 649.992>
LayerCount: 2
Fore
SplineSet
545.759765625 363.61328125 m 5xe8
 489.190429688 420.182617188 l 5
 719 649.9921875 l 5
 775.569335938 593.422851562 l 5
 545.759765625 363.61328125 l 5xe8
775 79.984375 m 5
 775 0 l 5
 377.9453125 0 125.0078125 252.926757812 125.0078125 649.9921875 c 5
 204.9921875 649.9921875 l 5
 204.9921875 297.029296875 422.1015625 79.984375 775 79.984375 c 5
EndSplineSet
Validated: 1
EndChar

StartChar: j
Encoding: 106 106 85
Width: 900
Flags: W
HStem: -0 21G<125.008 204.992 699 739> -0 21G<125.008 204.992 699 739> 325 21G<695 775> 629.992 20G<576.473 775> 629.992 20G<576.473 775>
VStem: 125.008 79.9844<0 170.461> 695 80<325 566.091>
LayerCount: 2
Fore
SplineSet
545.759765625 286.37890625 m 1xa6
 775.569335938 56.5693359375 l 1
 719 0 l 1
 489.190429688 229.809570312 l 1
 545.759765625 286.37890625 l 1xa6
775 325 m 1
 695 325 l 1
 695 566.090820312 l 5
 389.578125 535.349609375 204.9921875 325.453125 204.9921875 -0 c 1
 125.0078125 -0 l 1
 125.0078125 397.065429688 377.9453125 649.9921875 775 649.9921875 c 1xb6
 775 325 l 1
EndSplineSet
Validated: 1
EndChar

StartChar: k
Encoding: 107 107 86
Width: 900
Flags: W
HStem: 0 79.9844<605.484 775> 420.183 21G<408.518 448.518> 456.751 193.241G<125.008 204.992 525.19 565.19 698.432 738.432> 629.992 20G<125.008 204.992 525.19 565.19>
VStem: 125.008 79.9844<480.453 649.992>
LayerCount: 2
Fore
SplineSet
601.758789062 246.94140625 m 5xc8
 545.190429688 303.509765625 l 5
 718.431640625 476.750976562 l 5
 775 420.182617188 l 5
 601.758789062 246.94140625 l 5xc8
428.517578125 420.182617188 m 5
 371.94921875 476.750976562 l 5
 545.190429688 649.9921875 l 5xe8
 601.758789062 593.423828125 l 5
 428.517578125 420.182617188 l 5
775 79.984375 m 5
 775 0 l 5
 377.9453125 0 125.0078125 252.926757812 125.0078125 649.9921875 c 5
 204.9921875 649.9921875 l 5
 204.9921875 297.029296875 422.1015625 79.984375 775 79.984375 c 5
EndSplineSet
Validated: 1
EndChar

StartChar: l
Encoding: 108 108 87
Width: 900
Flags: W
HStem: 0 79.9844<125 236.039> 305 20G<370.008 449.992 572.5 652.5> 629.992 20G<370.008 449.992>
VStem: 370.008 79.9844<213.967 649.992> 572.5 80<0 325>
LayerCount: 2
Fore
SplineSet
652.5 325 m 5
 652.5 0 l 5
 572.5 0 l 5
 572.5 325 l 5
 652.5 325 l 5
370.0078125 649.9921875 m 1
 449.9921875 649.9921875 l 1
 449.9921875 324.9921875 l 2
 449.9921875 127.955078125 322.072265625 0 125 0 c 1
 125 79.984375 l 1
 204.073242188 79.984375 264.177734375 104.489257812 304.840820312 145.151367188 c 0
 345.502929688 185.814453125 370.0078125 245.918945312 370.0078125 324.9921875 c 2
 370.0078125 649.9921875 l 1
EndSplineSet
Validated: 1
EndChar

StartChar: m
Encoding: 109 109 88
Width: 900
Flags: W
HStem: 0 79.9844<125 236.039> 0 21G<698.432 738.432> 629.992 20G<370.008 449.992> 629.992 20G<370.008 449.992>
VStem: 370.008 79.9844<213.967 649.992>
LayerCount: 2
Fore
SplineSet
601.758789062 229.809570312 m 5x48
 775 56.568359375 l 5
 718.431640625 0 l 5
 545.190429688 173.241210938 l 5
 601.758789062 229.809570312 l 5x48
370.0078125 649.9921875 m 1xa8
 449.9921875 649.9921875 l 1
 449.9921875 324.9921875 l 2
 449.9921875 127.955078125 322.072265625 0 125 0 c 1
 125 79.984375 l 1
 204.073242188 79.984375 264.177734375 104.489257812 304.840820312 145.151367188 c 0
 345.502929688 185.814453125 370.0078125 245.918945312 370.0078125 324.9921875 c 2
 370.0078125 649.9921875 l 1xa8
EndSplineSet
Validated: 1
EndChar

StartChar: n
Encoding: 110 110 89
Width: 900
Flags: W
HStem: 0 79.9844<125 236.039> 0 21G<698.432 738.432> 629.992 20G<370.008 449.992> 629.992 20G<370.008 449.992 581.759 621.759>
VStem: 370.008 79.9844<213.967 649.992>
LayerCount: 2
Fore
SplineSet
370.0078125 649.9921875 m 5xa8
 449.9921875 649.9921875 l 5
 449.9921875 324.9921875 l 6
 449.9921875 127.955078125 322.072265625 0 125 0 c 5
 125 79.984375 l 5
 204.073242188 79.984375 264.177734375 104.489257812 304.840820312 145.151367188 c 4
 345.502929688 185.814453125 370.0078125 245.918945312 370.0078125 324.9921875 c 6
 370.0078125 649.9921875 l 5xa8
601.758789062 514.809570312 m 5
 775 341.568359375 l 5
 718.431640625 285 l 5
 545.190429688 458.241210938 l 5
 601.758789062 514.809570312 l 5
601.758789062 229.809570312 m 5
 775 56.568359375 l 5
 718.431640625 0 l 5x48
 545.190429688 173.241210938 l 5
 601.758789062 229.809570312 l 5
EndSplineSet
Validated: 1
EndChar

StartChar: p
Encoding: 112 112 90
Width: 900
Flags: W
HStem: 0 21G<125.008 204.992 370 450 615 695> 0 21G<125.008 204.992 370 450 615 695> 305 20G<615 695> 570.008 79.9844<605.484 775>
VStem: 125.008 79.9844<0 169.539> 370 80<0 245> 615 80<0 325>
LayerCount: 2
Fore
SplineSet
450 245 m 1xbe
 450 0 l 1
 370 0 l 1
 370 245 l 1
 450 245 l 1xbe
695 325 m 1
 695 0 l 1
 615 0 l 1
 615 325 l 1
 695 325 l 1
775 570.0078125 m 1
 422.1015625 570.0078125 204.9921875 352.962890625 204.9921875 -0 c 1
 125.0078125 -0 l 1
 125.0078125 397.065429688 377.9453125 649.9921875 775 649.9921875 c 1
 775 570.0078125 l 1
EndSplineSet
Validated: 1
EndChar

StartChar: r
Encoding: 114 114 91
Width: 900
Flags: W
HStem: 0 21G<370.008 449.992> 0 21G<370.008 449.992> 325 80<570 775> 570.008 79.9844<125 236.039>
VStem: 370.008 79.9844<0 436.025>
LayerCount: 2
Fore
SplineSet
570 325 m 1x38
 570 405 l 1
 775 405 l 1
 775 325 l 1
 570 325 l 1x38
370.0078125 0 m 1xb8
 370.0078125 325 l 2
 370.0078125 404.073242188 345.502929688 464.177734375 304.840820312 504.840820312 c 0
 264.177734375 545.502929688 204.073242188 570.0078125 125 570.0078125 c 1
 125 649.9921875 l 1
 322.072265625 649.9921875 449.9921875 522.037109375 449.9921875 325 c 2
 449.9921875 0 l 1
 370.0078125 0 l 1xb8
EndSplineSet
Validated: 1
EndChar

StartChar: s
Encoding: 115 115 92
Width: 900
Flags: W
HStem: 0 21G<370.008 449.992> 0 21G<370.008 449.992> 420.183 21G<581.759 621.759> 570.008 79.9844<125 236.039> 629.992 20G<698.432 738.432>
VStem: 370.008 79.9844<0 436.025>
LayerCount: 2
Fore
SplineSet
601.758789062 420.182617188 m 5x2c
 545.190429688 476.750976562 l 5
 718.431640625 649.9921875 l 5
 775 593.423828125 l 5
 601.758789062 420.182617188 l 5x2c
370.0078125 0 m 5xb4
 370.0078125 325 l 6
 370.0078125 404.073242188 345.502929688 464.177734375 304.840820312 504.840820312 c 4
 264.177734375 545.502929688 204.073242188 570.0078125 125 570.0078125 c 5
 125 649.9921875 l 5
 322.072265625 649.9921875 449.9921875 522.037109375 449.9921875 325 c 6
 449.9921875 0 l 5
 370.0078125 0 l 5xb4
EndSplineSet
Validated: 1
EndChar

StartChar: t
Encoding: 116 116 93
Width: 900
Flags: W
HStem: -0 21G<125.008 204.992 525.19 565.19> -0 21G<125.008 204.992 525.19 565.19> 383.051 20G<581.759 621.759> 570.008 79.9844<605.484 775>
VStem: 125.008 79.9844<0 169.539>
LayerCount: 2
Fore
SplineSet
601.758789062 403.05078125 m 5x38
 775 229.809570312 l 5
 718.431640625 173.241210938 l 5
 545.190429688 346.482421875 l 5
 601.758789062 403.05078125 l 5x38
428.517578125 229.809570312 m 5
 601.758789062 56.568359375 l 5
 545.190429688 0 l 5xb8
 371.94921875 173.241210938 l 5
 428.517578125 229.809570312 l 5
775 570.0078125 m 1
 422.1015625 570.0078125 204.9921875 352.962890625 204.9921875 -0 c 1
 125.0078125 -0 l 1
 125.0078125 397.065429688 377.9453125 649.9921875 775 649.9921875 c 1
 775 570.0078125 l 1
EndSplineSet
Validated: 1
EndChar

StartChar: v
Encoding: 118 118 94
Width: 900
Flags: W
HStem: 0 79.9844<605.484 775> 325 21G<695 775> 447.492 80<450 695> 629.992 20.0078G<125.008 204.992 695 775> 629.992 20.0078G<125.008 204.992 695 775>
VStem: 125.008 79.9844<480.453 649.992> 695 80<325 447.492 527.492 650>
LayerCount: 2
Fore
SplineSet
775 79.984375 m 1xe6
 775 0 l 1
 377.9453125 0 125.0078125 252.926757812 125.0078125 649.9921875 c 1
 204.9921875 649.9921875 l 1
 204.9921875 297.029296875 422.1015625 79.984375 775 79.984375 c 1xe6
775 650 m 5xf6
 775 325 l 5
 695 325 l 1
 695 447.4921875 l 1
 450 447.4921875 l 1
 450 527.4921875 l 1
 695 527.4921875 l 1
 695 650 l 1
 775 650 l 5xf6
EndSplineSet
Validated: 1
EndChar

StartChar: z
Encoding: 122 122 95
Width: 900
Flags: W
HStem: 0 21G<370.008 449.992> 0 21G<370.008 449.992> 325 116.183G<581.759 621.759 695 775> 570.008 79.9844<125 236.039> 629.992 20G<698.432 738.432>
VStem: 370.008 79.9844<0 436.025> 695 80<325 513.424>
LayerCount: 2
Fore
SplineSet
370.0078125 0 m 1xb6
 370.0078125 325 l 2
 370.0078125 404.073242188 345.502929688 464.177734375 304.840820312 504.840820312 c 0
 264.177734375 545.502929688 204.073242188 570.0078125 125 570.0078125 c 1
 125 649.9921875 l 1
 322.072265625 649.9921875 449.9921875 522.037109375 449.9921875 325 c 2
 449.9921875 0 l 1
 370.0078125 0 l 1xb6
695 513.423828125 m 1
 601.758789062 420.182617188 l 1
 545.190429688 476.750976562 l 1
 718.431640625 649.9921875 l 1x2e
 775 593.423828125 l 1
 775 325 l 1
 695 325 l 1
 695 513.423828125 l 1
EndSplineSet
Validated: 1
EndChar

StartChar: t_h_h
Encoding: 263 57352 96
Width: 900
Flags: W
HStem: -0 80<208.909 450> 0 21G<699 739> 570.008 79.9844<604.56 775>
LayerCount: 2
Fore
SplineSet
545.759765625 286.37890625 m 5x60
 775.569335938 56.5693359375 l 5
 719 0 l 5
 489.190429688 229.809570312 l 5
 545.759765625 286.37890625 l 5x60
125.0078125 -0 m 5
 125.0078125 397.065429688 377.9453125 649.9921875 775 649.9921875 c 5
 775 570.0078125 l 5
 449.600585938 570.0078125 239.653320312 385.471679688 208.909179688 80 c 5
 450 80 l 5
 450 0 l 5xa0
 125.0078125 -0 l 5
EndSplineSet
Validated: 1
Ligature2: "liga" T H H
Ligature2: "liga" T H h
Ligature2: "liga" T h H
Ligature2: "liga" T h h
Ligature2: "liga" t H H
Ligature2: "liga" t H h
Ligature2: "liga" t h H
Ligature2: "liga" t h h
LCarets2: 2 0 0
EndChar

StartChar: t_t_h
Encoding: 264 57353 97
Width: 900
Flags: W
HStem: -0 80<208.909 465.19> 383.051 20G<581.759 621.759> 570.008 79.9844<600.08 775>
LayerCount: 2
Fore
SplineSet
601.758789062 403.05078125 m 1
 775 229.809570312 l 1
 718.431640625 173.241210938 l 1
 545.190429688 346.482421875 l 1
 601.758789062 403.05078125 l 1
204.9921875 -0 m 1
 125.0078125 -0 l 1
 125.0078125 397.065429688 377.9453125 649.9921875 775 649.9921875 c 1
 775 570.0078125 l 1
 563.622070312 570.0078125 400.961914062 492.137695312 304.494140625 353.833007812 c 1
 601.758789062 56.568359375 l 1
 545.190429688 0 l 1
 204.9921875 -0 l 1
465.190429688 80 m 1
 263.012695312 282.177734375 l 1
 234.805664062 222.701171875 216.45703125 154.995117188 208.909179688 80 c 1
 465.190429688 80 l 1
EndSplineSet
Validated: 1
Ligature2: "liga" t t h
Ligature2: "liga" t t H
Ligature2: "liga" t T h
Ligature2: "liga" t T H
Ligature2: "liga" T t h
Ligature2: "liga" T t H
Ligature2: "liga" T T h
Ligature2: "liga" T T H
LCarets2: 2 0 0
EndChar

StartChar: j_h
Encoding: 265 57351 98
Width: 900
Flags: W
HStem: -0 80<208.909 450> 0 21G<699 739> 325 21G<695 775> 629.992 20G<576.473 775> 629.992 20G<576.473 775>
VStem: 695 80<325 566.091>
LayerCount: 2
Fore
SplineSet
125.0078125 -0 m 5x64
 125.0078125 397.065429688 377.9453125 649.9921875 775 649.9921875 c 1
 775 325 l 1
 695 325 l 1
 695 566.090820312 l 1
 415.389648438 537.948242188 237.0546875 359.651367188 208.909179688 80 c 1
 450 80 l 1
 450 0 l 5xb4
 125.0078125 -0 l 5x64
545.759765625 286.37890625 m 1
 775.569335938 56.5693359375 l 1
 719 0 l 1x64
 489.190429688 229.809570312 l 1
 545.759765625 286.37890625 l 1
EndSplineSet
Validated: 1
Ligature2: "liga" J H
Ligature2: "liga" J h
Ligature2: "liga" j H
Ligature2: "liga" j h
LCarets2: 1 0
EndChar

StartChar: s_h
Encoding: 266 57354 99
Width: 900
Flags: W
HStem: 0 80<125 370.008> 420.183 21G<581.759 621.759> 570.008 79.9844<125 236.039> 629.992 20G<698.432 738.432>
VStem: 370.008 79.9844<80 436.025>
LayerCount: 2
Fore
SplineSet
601.758789062 420.182617188 m 1xd8
 545.190429688 476.750976562 l 1
 718.431640625 649.9921875 l 1
 775 593.423828125 l 1
 601.758789062 420.182617188 l 1xd8
449.9921875 0 m 5
 125 0 l 5
 125 80 l 5
 370.0078125 80 l 5
 370.0078125 325 l 6
 370.0078125 404.073242188 345.502929688 464.177734375 304.840820312 504.840820312 c 4
 264.177734375 545.502929688 204.073242188 570.0078125 125 570.0078125 c 5
 125 649.9921875 l 5xe8
 322.072265625 649.9921875 449.9921875 522.037109375 449.9921875 325 c 6
 449.9921875 0 l 5
EndSplineSet
Validated: 1
Ligature2: "liga" S H
Ligature2: "liga" S h
Ligature2: "liga" s H
Ligature2: "liga" s h
LCarets2: 1 0
EndChar

StartChar: c_h
Encoding: 267 57355 100
Width: 900
Flags: W
HStem: 0 80<125 370.008> 344.992 20G<698.432 738.432> 420.183 21G<581.759 621.759> 570.008 79.9844<125 236.039>
VStem: 370.008 79.9844<80 436.025>
LayerCount: 2
Fore
SplineSet
449.9921875 0 m 1
 125 0 l 1
 125 80 l 1
 370.0078125 80 l 1
 370.0078125 325 l 2
 370.0078125 404.073242188 345.502929688 464.177734375 304.840820312 504.840820312 c 0
 264.177734375 545.502929688 204.073242188 570.0078125 125 570.0078125 c 1
 125 649.9921875 l 1
 322.072265625 649.9921875 449.9921875 522.037109375 449.9921875 325 c 2
 449.9921875 0 l 1
601.758789062 135.182617188 m 1
 545.190429688 191.750976562 l 1
 718.431640625 364.9921875 l 1
 775 308.423828125 l 1
 601.758789062 135.182617188 l 1
601.758789062 420.182617188 m 1
 545.190429688 476.750976562 l 1
 718.431640625 649.9921875 l 1
 775 593.423828125 l 1
 601.758789062 420.182617188 l 1
EndSplineSet
Validated: 1
Ligature2: "liga" C H
Ligature2: "liga" C h
Ligature2: "liga" c H
Ligature2: "liga" c h
LCarets2: 1 0
EndChar

